<svg id="visual" viewBox="0 0 540 960" width="540" height="960" xmlns="http://www.w3.org/2000/svg" xmlns:xlink="http://www.w3.org/1999/xlink" version="1.1"><rect x="0" y="0" width="540" height="960" fill="#87C9FF"></rect><defs><linearGradient id="grad1_0" x1="0%" y1="100%" x2="100%" y2="0%"><stop offset="30%" stop-color="#4682bb" stop-opacity="1"></stop><stop offset="70%" stop-color="#4682bb" stop-opacity="1"></stop></linearGradient></defs><defs><linearGradient id="grad1_1" x1="0%" y1="100%" x2="100%" y2="0%"><stop offset="30%" stop-color="#4682bb" stop-opacity="1"></stop><stop offset="70%" stop-color="#518dc6" stop-opacity="1"></stop></linearGradient></defs><defs><linearGradient id="grad1_2" x1="0%" y1="100%" x2="100%" y2="0%"><stop offset="30%" stop-color="#5c99d1" stop-opacity="1"></stop><stop offset="70%" stop-color="#518dc6" stop-opacity="1"></stop></linearGradient></defs><defs><linearGradient id="grad1_3" x1="0%" y1="100%" x2="100%" y2="0%"><stop offset="30%" stop-color="#5c99d1" stop-opacity="1"></stop><stop offset="70%" stop-color="#66a5dd" stop-opacity="1"></stop></linearGradient></defs><defs><linearGradient id="grad1_4" x1="0%" y1="100%" x2="100%" y2="0%"><stop offset="30%" stop-color="#71b1e8" stop-opacity="1"></stop><stop offset="70%" stop-color="#66a5dd" stop-opacity="1"></stop></linearGradient></defs><defs><linearGradient id="grad1_5" x1="0%" y1="100%" x2="100%" y2="0%"><stop offset="30%" stop-color="#71b1e8" stop-opacity="1"></stop><stop offset="70%" stop-color="#7cbdf4" stop-opacity="1"></stop></linearGradient></defs><defs><linearGradient id="grad1_6" x1="0%" y1="100%" x2="100%" y2="0%"><stop offset="30%" stop-color="#87c9ff" stop-opacity="1"></stop><stop offset="70%" stop-color="#7cbdf4" stop-opacity="1"></stop></linearGradient></defs><defs><linearGradient id="grad2_0" x1="0%" y1="100%" x2="100%" y2="0%"><stop offset="30%" stop-color="#4682bb" stop-opacity="1"></stop><stop offset="70%" stop-color="#4682bb" stop-opacity="1"></stop></linearGradient></defs><defs><linearGradient id="grad2_1" x1="0%" y1="100%" x2="100%" y2="0%"><stop offset="30%" stop-color="#518dc6" stop-opacity="1"></stop><stop offset="70%" stop-color="#4682bb" stop-opacity="1"></stop></linearGradient></defs><defs><linearGradient id="grad2_2" x1="0%" y1="100%" x2="100%" y2="0%"><stop offset="30%" stop-color="#518dc6" stop-opacity="1"></stop><stop offset="70%" stop-color="#5c99d1" stop-opacity="1"></stop></linearGradient></defs><defs><linearGradient id="grad2_3" x1="0%" y1="100%" x2="100%" y2="0%"><stop offset="30%" stop-color="#66a5dd" stop-opacity="1"></stop><stop offset="70%" stop-color="#5c99d1" stop-opacity="1"></stop></linearGradient></defs><defs><linearGradient id="grad2_4" x1="0%" y1="100%" x2="100%" y2="0%"><stop offset="30%" stop-color="#66a5dd" stop-opacity="1"></stop><stop offset="70%" stop-color="#71b1e8" stop-opacity="1"></stop></linearGradient></defs><defs><linearGradient id="grad2_5" x1="0%" y1="100%" x2="100%" y2="0%"><stop offset="30%" stop-color="#7cbdf4" stop-opacity="1"></stop><stop offset="70%" stop-color="#71b1e8" stop-opacity="1"></stop></linearGradient></defs><defs><linearGradient id="grad2_6" x1="0%" y1="100%" x2="100%" y2="0%"><stop offset="30%" stop-color="#7cbdf4" stop-opacity="1"></stop><stop offset="70%" stop-color="#87c9ff" stop-opacity="1"></stop></linearGradient></defs><g transform="translate(540, 960)"><path d="M-540 0C-537.7 -21.1 -535.4 -42.1 -535.1 -65C-534.8 -87.8 -536.4 -112.4 -512.7 -126.4C-488.9 -140.3 -439.7 -143.7 -432 -163.8C-424.3 -183.9 -458.1 -220.7 -453.4 -237.9C-448.6 -255.2 -405.4 -252.8 -390.9 -269.8C-376.5 -286.8 -390.8 -323.2 -377.2 -334.2C-363.7 -345.3 -322.1 -331.1 -307.7 -347.3C-293.3 -363.5 -306 -410.2 -296 -428.8C-286 -447.3 -253.2 -437.8 -228.6 -435.6C-204.1 -433.5 -187.6 -438.6 -173 -456.3C-158.5 -474 -145.8 -504.2 -128 -519.5C-110.2 -534.7 -87.3 -535.1 -65.1 -536.1C-42.9 -537 -21.4 -538.5 0 -540L0 0Z" fill="#81c3f9"></path><path d="M-462.9 0C-460.9 -18.1 -458.9 -36.1 -458.6 -55.7C-458.4 -75.3 -459.8 -96.3 -439.4 -108.3C-419 -120.3 -376.9 -123.2 -370.3 -140.4C-363.7 -157.6 -392.6 -189.2 -388.6 -203.9C-384.5 -218.7 -347.5 -216.7 -335.1 -231.3C-322.7 -245.9 -335 -277 -323.4 -286.5C-311.7 -296 -276.1 -283.8 -263.7 -297.7C-251.4 -311.6 -262.3 -351.6 -253.7 -367.5C-245.1 -383.4 -217.1 -375.3 -196 -373.4C-174.9 -371.5 -160.8 -376 -148.3 -391.1C-135.9 -406.3 -125 -432.1 -109.7 -445.2C-94.5 -458.4 -74.8 -458.7 -55.8 -459.5C-36.8 -460.3 -18.4 -461.6 0 -462.9L0 0Z" fill="#77b7ee"></path><path d="M-385.7 0C-384.1 -15.1 -382.4 -30.1 -382.2 -46.4C-382 -62.7 -383.2 -80.3 -366.2 -90.3C-349.2 -100.2 -314.1 -102.7 -308.6 -117C-303.1 -131.4 -327.2 -157.6 -323.8 -170C-320.4 -182.3 -289.5 -180.6 -279.2 -192.7C-268.9 -204.9 -279.2 -230.8 -269.5 -238.7C-259.8 -246.6 -230.1 -236.5 -219.8 -248.1C-209.5 -259.7 -218.6 -293 -211.4 -306.3C-204.3 -319.5 -180.9 -312.7 -163.3 -311.2C-145.8 -309.6 -134 -313.3 -123.6 -325.9C-113.2 -338.5 -104.2 -360.1 -91.5 -371C-78.7 -382 -62.3 -382.2 -46.5 -382.9C-30.6 -383.6 -15.3 -384.6 0 -385.7L0 0Z" fill="#6cabe2"></path><path d="M-308.6 0C-307.3 -12 -305.9 -24.1 -305.8 -37.1C-305.6 -50.2 -306.5 -64.2 -292.9 -72.2C-279.4 -80.2 -251.2 -82.1 -246.8 -93.6C-242.4 -105.1 -261.8 -126.1 -259.1 -136C-256.4 -145.8 -231.6 -144.5 -223.4 -154.2C-215.1 -163.9 -223.3 -184.7 -215.6 -191C-207.8 -197.3 -184.1 -189.2 -175.8 -198.5C-167.6 -207.7 -174.8 -234.4 -169.1 -245C-163.4 -255.6 -144.7 -250.2 -130.7 -248.9C-116.6 -247.7 -107.2 -250.6 -98.9 -260.7C-90.6 -270.8 -83.3 -288.1 -73.2 -296.8C-63 -305.6 -49.9 -305.8 -37.2 -306.3C-24.5 -306.9 -12.3 -307.7 0 -308.6L0 0Z" fill="#619fd7"></path><path d="M-231.4 0C-230.4 -9 -229.5 -18.1 -229.3 -27.8C-229.2 -37.6 -229.9 -48.2 -219.7 -54.2C-209.5 -60.1 -188.4 -61.6 -185.1 -70.2C-181.8 -78.8 -196.3 -94.6 -194.3 -102C-192.3 -109.4 -173.7 -108.4 -167.5 -115.6C-161.3 -122.9 -167.5 -138.5 -161.7 -143.2C-155.9 -148 -138 -141.9 -131.9 -148.8C-125.7 -155.8 -131.1 -175.8 -126.8 -183.8C-122.6 -191.7 -108.5 -187.6 -98 -186.7C-87.5 -185.8 -80.4 -188 -74.2 -195.6C-67.9 -203.1 -62.5 -216.1 -54.9 -222.6C-47.2 -229.2 -37.4 -229.3 -27.9 -229.7C-18.4 -230.1 -9.2 -230.8 0 -231.4L0 0Z" fill="#5693cc"></path><path d="M-154.3 0C-153.6 -6 -153 -12 -152.9 -18.6C-152.8 -25.1 -153.3 -32.1 -146.5 -36.1C-139.7 -40.1 -125.6 -41.1 -123.4 -46.8C-121.2 -52.5 -130.9 -63.1 -129.5 -68C-128.2 -72.9 -115.8 -72.2 -111.7 -77.1C-107.6 -82 -111.7 -92.3 -107.8 -95.5C-103.9 -98.7 -92 -94.6 -87.9 -99.2C-83.8 -103.9 -87.4 -117.2 -84.6 -122.5C-81.7 -127.8 -72.4 -125.1 -65.3 -124.5C-58.3 -123.8 -53.6 -125.3 -49.4 -130.4C-45.3 -135.4 -41.7 -144 -36.6 -148.4C-31.5 -152.8 -24.9 -152.9 -18.6 -153.2C-12.3 -153.4 -6.1 -153.9 0 -154.3L0 0Z" fill="#4b88c1"></path><path d="M-77.1 0C-76.8 -3 -76.5 -6 -76.4 -9.3C-76.4 -12.5 -76.6 -16.1 -73.2 -18.1C-69.8 -20 -62.8 -20.5 -61.7 -23.4C-60.6 -26.3 -65.4 -31.5 -64.8 -34C-64.1 -36.5 -57.9 -36.1 -55.8 -38.5C-53.8 -41 -55.8 -46.2 -53.9 -47.7C-52 -49.3 -46 -47.3 -44 -49.6C-41.9 -51.9 -43.7 -58.6 -42.3 -61.3C-40.9 -63.9 -36.2 -62.5 -32.7 -62.2C-29.2 -61.9 -26.8 -62.7 -24.7 -65.2C-22.6 -67.7 -20.8 -72 -18.3 -74.2C-15.7 -76.4 -12.5 -76.4 -9.3 -76.6C-6.1 -76.7 -3.1 -76.9 0 -77.1L0 0Z" fill="#4682bb"></path></g><g transform="translate(0, 0)"><path d="M540 0C505.8 18.2 471.7 36.4 466.6 56.7C461.5 76.9 485.5 99.4 492.3 121.3C499 143.3 488.5 164.8 466.6 176.9C444.6 189.1 411.2 191.8 412.6 216.6C414.1 241.4 450.4 288.3 444.4 306.8C438.5 325.3 390.3 315.4 370.5 328.2C350.8 341.1 359.4 376.8 346.8 391.5C334.2 406.1 300.3 399.7 274.9 398.3C249.6 396.9 232.8 400.6 221.2 421.5C209.7 442.4 203.4 480.6 185.5 489C167.6 497.4 138 476.1 115.1 467C92.2 458 75.8 461.3 57.7 475.5C39.6 489.7 19.8 514.9 0 540L0 0Z" fill="#81c3f9"></path><path d="M462.9 0C433.6 15.6 404.3 31.2 399.9 48.6C395.6 66 416.1 85.2 421.9 104C427.7 122.8 418.7 141.3 399.9 151.7C381.1 162.1 352.4 164.4 353.7 185.6C354.9 206.9 386 247.1 380.9 262.9C375.8 278.8 334.5 270.3 317.6 281.4C300.6 292.4 308.1 323 297.3 335.5C286.5 348.1 257.4 342.6 235.7 341.4C213.9 340.2 199.5 343.3 189.6 361.3C179.7 379.2 174.3 411.9 159 419.2C143.6 426.4 118.3 408.1 98.7 400.3C79 392.6 65 395.4 49.5 407.6C34 419.8 17 441.3 0 462.9L0 0Z" fill="#77b7ee"></path><path d="M385.7 0C361.3 13 336.9 26 333.3 40.5C329.6 55 346.8 71 351.6 86.7C356.4 102.4 349 117.7 333.3 126.4C317.6 135 293.7 137 294.7 154.7C295.8 172.4 321.7 205.9 317.4 219.1C313.2 232.3 278.8 225.3 264.7 234.5C250.5 243.7 256.7 269.2 247.7 279.6C238.7 290.1 214.5 285.5 196.4 284.5C178.3 283.5 166.3 286.1 158 301.1C149.8 316 145.3 343.3 132.5 349.3C119.7 355.3 98.6 340 82.2 333.6C65.8 327.1 54.2 329.5 41.2 339.6C28.3 349.8 14.2 367.8 0 385.7L0 0Z" fill="#6cabe2"></path><path d="M308.6 0C289 10.4 269.5 20.8 266.6 32.4C263.7 44 277.4 56.8 281.3 69.3C285.2 81.9 279.2 94.2 266.6 101.1C254.1 108 235 109.6 235.8 123.7C236.6 137.9 257.3 164.7 253.9 175.3C250.6 185.9 223 180.2 211.7 187.6C200.4 194.9 205.4 215.3 198.2 223.7C191 232.1 171.6 228.4 157.1 227.6C142.6 226.8 133 228.9 126.4 240.8C119.8 252.8 116.2 274.6 106 279.4C95.7 284.2 78.9 272 65.8 266.9C52.7 261.7 43.3 263.6 33 271.7C22.7 279.8 11.3 294.2 0 308.6L0 0Z" fill="#619fd7"></path><path d="M231.4 0C216.8 7.8 202.1 15.6 200 24.3C197.8 33 208.1 42.6 211 52C213.9 61.4 209.4 70.6 200 75.8C190.5 81 176.2 82.2 176.8 92.8C177.5 103.4 193 123.5 190.5 131.5C187.9 139.4 167.3 135.2 158.8 140.7C150.3 146.2 154 161.5 148.6 167.8C143.2 174 128.7 171.3 117.8 170.7C107 170.1 99.8 171.7 94.8 180.6C89.9 189.6 87.2 206 79.5 209.6C71.8 213.2 59.2 204 49.3 200.2C39.5 196.3 32.5 197.7 24.7 203.8C17 209.9 8.5 220.7 0 231.4L0 0Z" fill="#5693cc"></path><path d="M154.3 0C144.5 5.2 134.8 10.4 133.3 16.2C131.9 22 138.7 28.4 140.6 34.7C142.6 40.9 139.6 47.1 133.3 50.6C127 54 117.5 54.8 117.9 61.9C118.3 69 128.7 82.4 127 87.6C125.3 92.9 111.5 90.1 105.9 93.8C100.2 97.5 102.7 107.7 99.1 111.8C95.5 116 85.8 114.2 78.6 113.8C71.3 113.4 66.5 114.4 63.2 120.4C59.9 126.4 58.1 137.3 53 139.7C47.9 142.1 39.4 136 32.9 133.4C26.3 130.9 21.7 131.8 16.5 135.9C11.3 139.9 5.7 147.1 0 154.3L0 0Z" fill="#4b88c1"></path><path d="M77.1 0C72.3 2.6 67.4 5.2 66.7 8.1C65.9 11 69.4 14.2 70.3 17.3C71.3 20.5 69.8 23.5 66.7 25.3C63.5 27 58.7 27.4 58.9 30.9C59.2 34.5 64.3 41.2 63.5 43.8C62.6 46.5 55.8 45.1 52.9 46.9C50.1 48.7 51.3 53.8 49.5 55.9C47.7 58 42.9 57.1 39.3 56.9C35.7 56.7 33.3 57.2 31.6 60.2C30 63.2 29.1 68.7 26.5 69.9C23.9 71.1 19.7 68 16.4 66.7C13.2 65.4 10.8 65.9 8.2 67.9C5.7 70 2.8 73.6 0 77.1L0 0Z" fill="#4682bb"></path></g></svg>