<svg xmlns="http://www.w3.org/2000/svg" width="144.436" height="98.607" viewBox="0 0 144.436 98.607"><defs><style>.a{fill:#969300;}.a,.b,.c,.d{fill-rule:evenodd;}.b{fill:#fdc300;}.c{fill:#fff;}.d{fill:#004687;}</style></defs><path class="a" d="M95.108,64.723c.275,1.789-.344,5.987-.482,3.028-1.307-7.225-7.432-9.083-12.593-10.8C72.606,54.47,91.874,43.116,95.108,64.723Z" transform="translate(-24.782 -16.142)"/><path class="b" d="M99.714,52.319c0,1.376-.826,4.335-.619,2.133-.206-5.367-4.473-7.363-8.051-9.083C84.438,42.548,99.577,36.286,99.714,52.319Z" transform="translate(-27.875 -13.028)"/><path class="c" d="M114.857,0a14.373,14.373,0,0,1-4.473,14.382c-5.092,5.711.895,10.322-.275,10.115-1.1-2-6.744-1.307-4.679-1.789,4.06-.895.206-1.583-.963-10.391C103.365,3.578,114.857,0,114.857,0ZM111.9,4.748a1.509,1.509,0,1,0,.069,2.133A1.584,1.584,0,0,0,111.9,4.748Z" transform="translate(-32.558 0)"/><path class="d" d="M104.947,57.559c-.482,4.266-1.583,14.244.206,7.363,4.886-11.56,15.483-17.341,22.433-17.478,4.129-.413,9.358,3.234,15.758-2,4.542-3.853,3.3-16.515-10.184-17.272C124.834,27.419,107.356,34.782,104.947,57.559Z" transform="translate(-32.488 -8.771)"/><path class="d" d="M15.813,104.959c0-4.129-2.752-5.987-6.537-7.156l-1.72-.482c-1.72-.482-3.578-1.239-3.578-3.578a4.008,4.008,0,0,1,4.2-4.2,4.67,4.67,0,0,1,4.954,4.886c0,.275.069.55.55.55a.5.5,0,0,0,.55-.55V88.719c0-.206,0-.55-.55-.55-.482,0-.482.344-.482.55,0,.619-.275.895-.619.963A6.051,6.051,0,0,0,8.037,88.1,6.6,6.6,0,0,0,1.5,94.568c0,3.578,1.72,5.643,6.124,6.95L9,101.931c2,.55,4.06,1.514,4.06,4.06a4.415,4.415,0,0,1-4.61,4.335A5.566,5.566,0,0,1,2.6,104.615c0-.275-.069-.55-.55-.55a.5.5,0,0,0-.55.55v6.537c0,.206,0,.55.55.55.482,0,.482-.344.482-.55a1.257,1.257,0,0,1,.688-1.239,7.943,7.943,0,0,0,5.092,1.927C12.372,111.771,15.813,109.156,15.813,104.959Z" transform="translate(-0.468 -27.477)"/><path class="d" d="M41.363,88.938l-9.565.069c-3.3,0-4.06-.206-4.748-.206a.607.607,0,0,0-.55.619.563.563,0,0,0,.55.619c.619,0,1.1-.069,3.578-.069v20.3c-2.477,0-2.959-.069-3.578-.069a.624.624,0,0,0,0,1.239c.688,0,1.376-.206,4.748-.206l10.459.069c.55,0,1.583.138,1.927.138a.607.607,0,0,0,.55-.619v-1.1c0-1.445.206-3.853.206-4.2a.543.543,0,0,0-.55-.55.563.563,0,0,0-.619.55c0,2.821-.963,4.473-2.959,4.473H34.276v-9.771h3.441c1.17,0,1.858.895,1.858,2.684a.486.486,0,1,0,.963,0c0-.344-.069-.963-.069-3.3s.069-3.028.069-3.3a.486.486,0,1,0-.963,0c0,1.789-.757,2.684-1.858,2.684H34.276V90.245h5.643c2,0,2.959,1.651,2.959,4.473a.563.563,0,0,0,.619.55.543.543,0,0,0,.55-.55c0-.344-.206-2.821-.206-4.2V89.488a.563.563,0,0,0-.55-.619C42.946,88.8,41.845,88.938,41.363,88.938Z" transform="translate(-8.265 -27.695)"/><path class="d" d="M67.036,90.276h3.991c2,0,2.959,1.651,2.959,4.473a.543.543,0,0,0,.55.55.5.5,0,0,0,.55-.55c0-.344-.206-2.821-.206-4.2V89.519a.563.563,0,0,0-.55-.619c-.344,0-1.376.138-1.927.138H57.884c-.55,0-1.651-.138-1.927-.138a.607.607,0,0,0-.55.619v1.032c0,1.445-.206,3.853-.206,4.2a.543.543,0,0,0,.55.55.5.5,0,0,0,.55-.55c0-2.821.963-4.473,2.959-4.473h4.06v20.093c-2.2,0-2.89-.069-3.509-.069a.624.624,0,0,0,0,1.239c.688,0,1.445-.206,4.748-.206h1.307c3.3,0,4.06.206,4.748.206a.624.624,0,0,0,0-1.239c-.55,0-1.1.069-3.509.069V90.276Z" transform="translate(-17.216 -27.726)"/><path class="d" d="M104.874,105.208V90.07c2.2,0,2.89.069,3.509.069a.624.624,0,0,0,0-1.239,34.109,34.109,0,0,1-3.991.206h-.413a32.674,32.674,0,0,1-3.991-.206.607.607,0,0,0-.55.619.563.563,0,0,0,.55.619c.619,0,1.1-.069,3.578-.069v15.139a4.983,4.983,0,0,1-5.161,5.3c-2.752,0-5.23-1.583-5.23-4.61V90.07c2.2,0,2.959.069,3.578.069a.624.624,0,0,0,0-1.239c-.688,0-1.445.206-4.748.206H90.7c-3.3,0-4.06-.206-4.748-.206a.607.607,0,0,0-.55.619.563.563,0,0,0,.55.619c.55,0,1.1-.069,3.509-.069v15.139c0,4.335,3.853,6.812,7.707,6.812C101.571,112.021,104.874,109.543,104.874,105.208Z" transform="translate(-26.635 -27.726)"/><path class="d" d="M126.7,111.433h.895c1.583,0,3.647.138,5.574.138,5.092,0,7.638-2.477,7.638-6.124,0-3.1-3.028-5.436-6.055-5.987,2-.619,4.61-2.477,4.61-4.954,0-3.028-2.477-5.367-7.5-5.367-1.17,0-2.959.069-4.266.069H126.7c-3.3,0-4.06-.206-4.748-.206a.607.607,0,0,0-.55.619.563.563,0,0,0,.55.619c.55,0,1.1-.069,3.509-.069v20.3c-2.477,0-2.959-.069-3.509-.069a.624.624,0,0,0,0,1.239A34.337,34.337,0,0,1,126.7,111.433Zm3.991-12.317h-1.514V90.307h1.789c3.509,0,4.748,1.1,4.748,4.06C135.713,98.152,133.786,99.115,130.69,99.115Zm1.789,11.079h-3.3v-9.771h2.959c3.3,0,5.023,1.927,5.023,5.023C137.158,108.955,135.919,110.194,132.479,110.194Z" transform="translate(-37.863 -27.758)"/><path class="d" d="M163.113,102.895h-6.468l3.234-8.808Zm-6.881,1.307h7.432l2.133,5.918h-.275c-1.239,0-2.064-.069-2.684-.069a.556.556,0,0,0-.482.619.61.61,0,0,0,.482.619c.688,0,1.445-.206,4.748-.206h.206c3.3,0,4.06.206,4.748.206a.624.624,0,0,0,0-1.239c-.619,0-.963.069-2.684.069h-.138l-7.844-21.607c-.069-.275-.206-.413-.619-.413s-.482.138-.619.413l-7.913,21.607c-2.34,0-2.821-.069-3.441-.069a.639.639,0,0,0,0,1.239,38.377,38.377,0,0,1,4.129-.206h.206a36.8,36.8,0,0,1,4.129.206.624.624,0,0,0,0-1.239c-.619,0-1.1.069-3.647.069Z" transform="translate(-46.408 -27.477)"/><path class="d" d="M191.376,110.163V90.07c2.2,0,2.959.069,3.578.069a.624.624,0,0,0,0-1.239c-.688,0-1.445.206-4.748.206H188.9c-3.3,0-4.06-.206-4.748-.206a.607.607,0,0,0-.55.619.563.563,0,0,0,.55.619c.551,0,1.1-.069,3.509-.069v20.3c-2.477,0-2.959-.069-3.509-.069a.624.624,0,0,0,0,1.239c.688,0,1.376-.206,4.748-.206l10.115.069c.55,0,1.583.138,1.927.138a.607.607,0,0,0,.551-.619v-1.1c0-1.445.206-3.853.206-4.2a.543.543,0,0,0-.55-.55.563.563,0,0,0-.619.55c0,2.821-.963,4.473-2.959,4.473h-6.193Z" transform="translate(-57.262 -27.726)"/><path class="c" d="M3.716,139.148l-1.651-4.4a.377.377,0,0,0-.413-.275H1.17A5.874,5.874,0,0,1,.138,134.4a.138.138,0,1,0,0,.275H1.1v5.3H.138a.138.138,0,0,0,0,.275,8.205,8.205,0,0,1,1.032-.069h.138a5.876,5.876,0,0,1,1.032.069.138.138,0,0,0,0-.275H1.376v-4.4l1.789,4.679c.069.069.069.138.206.138s.138-.069.206-.138l1.858-4.61v4.335H4.473a.138.138,0,0,0,0,.275,11.132,11.132,0,0,1,1.239-.069h.344c.826,0,1.032.069,1.239.069a.138.138,0,0,0,0-.275H6.331v-5.3h.963a.138.138,0,1,0,0-.275c-.206,0-.413.069-1.239.069H5.78c-.138,0-.206.069-.275.206Z" transform="translate(0 -41.917)"/><path class="c" d="M19.236,139.636v-5.092c0-.138-.069-.206-.138-.206-.138,0-.413.069-.757.069-.55,0-.895-.069-1.032-.069a.138.138,0,1,0,0,.275h.963v2.546c0,1.514-.826,2.752-1.651,2.752-.482,0-.757-.344-.757-1.239v-4.266c0-.138-.069-.206-.138-.206-.138,0-.413.069-.757.069a9.792,9.792,0,0,1-1.032-.069.138.138,0,1,0,0,.275h.895v3.578c0,1.239.413,2.133,1.514,2.133a2.207,2.207,0,0,0,1.789-1.651v.551a.91.91,0,0,0,.895,1.032,1.342,1.342,0,0,0,.895-.344.253.253,0,0,0,.069-.206.22.22,0,0,0-.206-.206c-.069,0-.069,0-.069.069-.138.069-.138.344-.413.344C19.3,140.118,19.236,139.98,19.236,139.636Z" transform="translate(-4.304 -41.855)"/><path class="c" d="M33.075,140.218a.148.148,0,0,0-.138-.138h-.895v-3.647c0-1.239-.482-2.133-1.651-2.133a2.379,2.379,0,0,0-1.927,1.651v-1.376c0-.138-.069-.206-.138-.206-.138,0-.413.069-.757.069a9.788,9.788,0,0,1-1.032-.069.138.138,0,1,0,0,.275h.895v5.3h-.895a.138.138,0,1,0,0,.275,11.127,11.127,0,0,1,1.239-.069h.344a8.654,8.654,0,0,1,1.1.069.138.138,0,0,0,0-.275h-.757v-2.408c0-1.514.895-2.821,1.789-2.821.619,0,.757.344.757,1.17v4.129h-.757a.138.138,0,1,0,0,.275,8.656,8.656,0,0,1,1.1-.069H31.7a11.13,11.13,0,0,1,1.239.069C33.006,140.355,33.075,140.287,33.075,140.218Z" transform="translate(-8.234 -41.886)"/><path class="c" d="M41.3,140.174v-5.3h.963a.138.138,0,0,0,0-.275c-.206,0-.413.069-1.239.069h-.344a11.127,11.127,0,0,1-1.239-.069.138.138,0,0,0,0,.275h.895v5.3h-.895a.138.138,0,0,0,0,.275,11.129,11.129,0,0,1,1.239-.069h.344c.826,0,1.032.069,1.239.069a.138.138,0,0,0,0-.275Z" transform="translate(-12.257 -41.979)"/><path class="c" d="M52.1,138.773a.148.148,0,0,0-.138-.138q-.1,0-.206.206c-.275.826-.688,1.307-1.445,1.307-.963,0-1.514-.688-1.514-2.752,0-2,.413-2.752,1.514-2.752a1.045,1.045,0,0,1,1.1.619.619.619,0,1,0,0,1.239.635.635,0,0,0,.619-.688c0-.895-.826-1.514-1.927-1.514-1.445,0-2.408,1.239-2.408,3.1s.963,3.1,2.408,3.1a2.017,2.017,0,0,0,1.927-1.445C52.035,138.979,52.1,138.842,52.1,138.773Z" transform="translate(-14.877 -41.886)"/><path class="c" d="M59.9,139.111v-5.3h.963a.138.138,0,0,0,0-.275c-.206,0-.413.069-1.239.069h-.344a11.127,11.127,0,0,1-1.239-.069.138.138,0,1,0,0,.275h.895v5.3h-.895a.138.138,0,1,0,0,.275,11.124,11.124,0,0,1,1.239-.069h.344c.826,0,1.032.069,1.239.069a.138.138,0,0,0,0-.275Zm.619-7.776a.426.426,0,0,0-.55-.069,11.7,11.7,0,0,1-1.307,1.445c-.138.069.069.275.206.206a11,11,0,0,1,1.651-1.032C60.584,131.748,60.652,131.472,60.515,131.335Z" transform="translate(-18.058 -40.916)"/><path class="c" d="M68.064,134.813h.619c.895,0,1.239.344,1.239,1.376s-.344,1.376-1.239,1.376h-.619Zm.619-.344H67.376a11.127,11.127,0,0,1-1.239-.069.138.138,0,1,0,0,.275h.895v5.3h-.895a.138.138,0,1,0,0,.275,11.129,11.129,0,0,1,1.239-.069h.344c.826,0,1.032.069,1.239.069a.138.138,0,1,0,0-.275H68v-2.2h.619c1.307,0,2.2-.688,2.2-1.72C70.886,135.157,69.991,134.469,68.684,134.469Z" transform="translate(-20.584 -41.917)"/><path class="c" d="M78.7,140.174v-5.3h.963a.138.138,0,0,0,0-.275c-.206,0-.413.069-1.239.069h-.344a11.127,11.127,0,0,1-1.239-.069.138.138,0,1,0,0,.275h.895v5.3h-.895a.138.138,0,1,0,0,.275,11.13,11.13,0,0,1,1.239-.069h.344c.826,0,1.032.069,1.239.069a.138.138,0,0,0,0-.275Z" transform="translate(-23.921 -41.979)"/><path class="c" d="M88.922,137.4c0,2.064-.482,2.752-1.445,2.752s-1.445-.757-1.445-2.752c0-2.064.482-2.752,1.445-2.752S88.922,135.332,88.922,137.4Zm1.032,0c0-1.858-1.1-3.1-2.477-3.1S85,135.539,85,137.4s1.1,3.1,2.477,3.1S89.954,139.254,89.954,137.4Z" transform="translate(-26.51 -41.886)"/><path class="c" d="M103.5,134.813h.619c.895,0,1.239.344,1.239,1.376s-.344,1.376-1.239,1.376H103.5Zm.688-.344h-1.307a11.127,11.127,0,0,1-1.239-.069.138.138,0,1,0,0,.275h.895v5.3h-.895a.138.138,0,0,0,0,.275,11.129,11.129,0,0,1,1.239-.069h.344c.826,0,1.032.069,1.239.069a.138.138,0,1,0,0-.275H103.5v-2.2h.619c1.307,0,2.2-.688,2.2-1.72C106.386,135.157,105.491,134.469,104.184,134.469Z" transform="translate(-31.656 -41.917)"/><path class="c" d="M113.339,135.088c.069-.206.413-.344.895-.344.55,0,.826.344.826.963v1.583c-1.239,0-2.959.482-2.959,1.927a1.208,1.208,0,0,0,1.307,1.239,2.662,2.662,0,0,0,1.72-.757.821.821,0,0,0,.826.757,1.069,1.069,0,0,0,.895-.344.253.253,0,0,0,.069-.206.22.22,0,0,0-.206-.206c-.069,0-.069,0-.069.069-.138.069-.206.344-.413.344-.138,0-.206-.069-.206-.413v-3.509a1.572,1.572,0,0,0-1.789-1.789c-.826,0-1.72.55-1.72,1.17a.506.506,0,0,0,.55.55.592.592,0,0,0,.55-.55A.461.461,0,0,0,113.339,135.088Zm1.72,4.2c-.619.688-.963.688-1.239.688-.344,0-.688-.206-.688-.895,0-1.1,1.032-1.514,2-1.514v1.72Z" transform="translate(-34.962 -41.917)"/><path class="c" d="M124.364,135.47v-.895c0-.138-.069-.206-.138-.206-.138,0-.413.069-.757.069a9.788,9.788,0,0,1-1.032-.069.138.138,0,0,0,0,.275h.895v5.3h-.895a.138.138,0,0,0,0,.275,11.132,11.132,0,0,1,1.239-.069h.344c.826,0,1.032.069,1.239.069a.138.138,0,0,0,0-.275H124.3v-2.89c0-1.789.895-2.546,1.514-2.408a.786.786,0,0,0-.206.482.617.617,0,0,0,.619.619.635.635,0,0,0,.619-.688c0-.413-.344-.757-.963-.757A1.782,1.782,0,0,0,124.364,135.47Z" transform="translate(-38.143 -41.886)"/><path class="c" d="M134.865,134.844H135.9c.55,0,.757.413.757,1.17a.138.138,0,1,0,.275,0c0-.069-.069-.757-.069-1.1v-.275a.148.148,0,0,0-.138-.138c-.069,0-.344.069-.482.069h-3.853c-.138,0-.413-.069-.482-.069a.148.148,0,0,0-.138.138v.275c0,.344-.069,1.032-.069,1.1a.138.138,0,1,0,.275,0c0-.757.275-1.17.757-1.17h1.032v5.3h-.895a.138.138,0,0,0,0,.275,11.133,11.133,0,0,1,1.239-.069h.344a11.131,11.131,0,0,1,1.239.069.138.138,0,0,0,0-.275H134.8v-5.3Z" transform="translate(-41.075 -41.948)"/><path class="c" d="M144.8,140.174v-5.3h.963a.138.138,0,0,0,0-.275c-.206,0-.413.069-1.239.069h-.344a11.128,11.128,0,0,1-1.239-.069.138.138,0,0,0,0,.275h.895v5.3h-.895a.138.138,0,0,0,0,.275,11.13,11.13,0,0,1,1.239-.069h.344c.826,0,1.032.069,1.239.069a.138.138,0,0,0,0-.275Z" transform="translate(-44.537 -41.979)"/><path class="c" d="M155.5,138.773a.148.148,0,0,0-.138-.138q-.1,0-.206.206c-.275.826-.688,1.307-1.445,1.307-.963,0-1.514-.688-1.514-2.752,0-2,.413-2.752,1.514-2.752a1.045,1.045,0,0,1,1.1.619.619.619,0,0,0,0,1.239.635.635,0,0,0,.619-.688c0-.895-.826-1.514-1.927-1.514-1.445,0-2.408,1.239-2.408,3.1s.963,3.1,2.408,3.1a2.017,2.017,0,0,0,1.927-1.445C155.435,138.979,155.5,138.842,155.5,138.773Z" transform="translate(-47.126 -41.886)"/><path class="c" d="M163.3,140.174v-5.3h.963a.138.138,0,1,0,0-.275c-.206,0-.413.069-1.239.069h-.344a11.127,11.127,0,0,1-1.239-.069.138.138,0,0,0,0,.275h.895v5.3h-.895a.138.138,0,0,0,0,.275,11.129,11.129,0,0,1,1.239-.069h.344c.826,0,1.032.069,1.239.069a.138.138,0,1,0,0-.275Z" transform="translate(-50.307 -41.979)"/><path class="c" d="M171.464,134.813h.619c.895,0,1.239.344,1.239,1.376s-.344,1.376-1.239,1.376h-.619Zm.619-.344h-1.307a11.128,11.128,0,0,1-1.239-.069.138.138,0,0,0,0,.275h.895v5.3h-.895a.138.138,0,0,0,0,.275,11.13,11.13,0,0,1,1.239-.069h.344c.826,0,1.032.069,1.239.069a.138.138,0,0,0,0-.275H171.4v-2.2h.619c1.307,0,2.2-.688,2.2-1.72C174.286,135.157,173.46,134.469,172.084,134.469Z" transform="translate(-52.833 -41.917)"/><path class="c" d="M181.339,135.088c.069-.206.413-.344.895-.344.551,0,.826.344.826.963v1.583c-1.239,0-2.959.482-2.959,1.927a1.208,1.208,0,0,0,1.307,1.239,2.662,2.662,0,0,0,1.72-.757.821.821,0,0,0,.826.757,1.069,1.069,0,0,0,.895-.344.253.253,0,0,0,.069-.206.22.22,0,0,0-.206-.206c-.069,0-.069,0-.069.069-.138.069-.206.344-.413.344-.138,0-.206-.069-.206-.413v-3.509a1.572,1.572,0,0,0-1.789-1.789c-.826,0-1.72.55-1.72,1.17a.506.506,0,0,0,.55.55.592.592,0,0,0,.551-.55A.579.579,0,0,0,181.339,135.088Zm1.72,4.2c-.619.688-.963.688-1.239.688-.344,0-.688-.206-.688-.895,0-1.1,1.032-1.514,2-1.514v1.72Z" transform="translate(-56.17 -41.917)"/><path class="c" d="M191.676,140.418h.206c.757,0,1.032.069,1.445.069a2.982,2.982,0,0,0,0-5.918h-1.651a11.125,11.125,0,0,1-1.239-.069.138.138,0,1,0,0,.275h.895v5.3h-.895a.138.138,0,1,0,0,.275A4.008,4.008,0,0,0,191.676,140.418Zm1.651-.344H192.3v-5.23h1.032c1.032,0,1.514.619,1.514,2.615C194.91,139.386,194.429,140.074,193.328,140.074Z" transform="translate(-59.351 -41.948)"/><path class="c" d="M206.622,137.4c0,2.064-.482,2.752-1.445,2.752s-1.445-.757-1.445-2.752c0-2.064.482-2.752,1.445-2.752S206.622,135.332,206.622,137.4Zm1.032,0c0-1.858-1.1-3.1-2.477-3.1s-2.477,1.239-2.477,3.1,1.1,3.1,2.477,3.1S207.654,139.254,207.654,137.4Z" transform="translate(-63.219 -41.886)"/></svg>