<svg id="visual" viewBox="0 0 540 960" xmlns="http://www.w3.org/2000/svg" xmlns:xlink="http://www.w3.org/1999/xlink" version="1.1"><path d="M0 116L6.5 103.2C13 90.3 26 64.7 38.8 53.5C51.7 42.3 64.3 45.7 77.2 57C90 68.3 103 87.7 115.8 102C128.7 116.3 141.3 125.7 154.2 120.8C167 116 180 97 192.8 81C205.7 65 218.3 52 231.2 55.2C244 58.3 257 77.7 270 89C283 100.3 296 103.7 308.8 102C321.7 100.3 334.3 93.7 347.2 84C360 74.3 373 61.7 385.8 60.2C398.7 58.7 411.3 68.3 424.2 78C437 87.7 450 97.3 462.8 98.8C475.7 100.3 488.3 93.7 501.2 93.7C514 93.7 527 100.3 533.5 103.7L540 107L540 0L533.5 0C527 0 514 0 501.2 0C488.3 0 475.7 0 462.8 0C450 0 437 0 424.2 0C411.3 0 398.7 0 385.8 0C373 0 360 0 347.2 0C334.3 0 321.7 0 308.8 0C296 0 283 0 270 0C257 0 244 0 231.2 0C218.3 0 205.7 0 192.8 0C180 0 167 0 154.2 0C141.3 0 128.7 0 115.8 0C103 0 90 0 77.2 0C64.3 0 51.7 0 38.8 0C26 0 13 0 6.5 0L0 0Z" fill="#b7dbfe"></path><path d="M0 260L6.5 240.8C13 221.7 26 183.3 38.8 170.5C51.7 157.7 64.3 170.3 77.2 180C90 189.7 103 196.3 115.8 212.3C128.7 228.3 141.3 253.7 154.2 255.2C167 256.7 180 234.3 192.8 226.3C205.7 218.3 218.3 224.7 231.2 219.8C244 215 257 199 270 199C283 199 296 215 308.8 221.5C321.7 228 334.3 225 347.2 204.3C360 183.7 373 145.3 385.8 146.8C398.7 148.3 411.3 189.7 424.2 215.2C437 240.7 450 250.3 462.8 253.7C475.7 257 488.3 254 501.2 255.7C514 257.3 527 263.7 533.5 266.8L540 270L540 105L533.5 101.7C527 98.3 514 91.7 501.2 91.7C488.3 91.7 475.7 98.3 462.8 96.8C450 95.3 437 85.7 424.2 76C411.3 66.3 398.7 56.7 385.8 58.2C373 59.7 360 72.3 347.2 82C334.3 91.7 321.7 98.3 308.8 100C296 101.7 283 98.3 270 87C257 75.7 244 56.3 231.2 53.2C218.3 50 205.7 63 192.8 79C180 95 167 114 154.2 118.8C141.3 123.7 128.7 114.3 115.8 100C103 85.7 90 66.3 77.2 55C64.3 43.7 51.7 40.3 38.8 51.5C26 62.7 13 88.3 6.5 101.2L0 114Z" fill="#afd7fe"></path><path d="M0 337L6.5 314.7C13 292.3 26 247.7 38.8 230C51.7 212.3 64.3 221.7 77.2 231.2C90 240.7 103 250.3 115.8 264.8C128.7 279.3 141.3 298.7 154.2 305.2C167 311.7 180 305.3 192.8 298.8C205.7 292.3 218.3 285.7 231.2 274.3C244 263 257 247 270 255C283 263 296 295 308.8 303C321.7 311 334.3 295 347.2 267.8C360 240.7 373 202.3 385.8 207.2C398.7 212 411.3 260 424.2 285.7C437 311.3 450 314.7 462.8 316.3C475.7 318 488.3 318 501.2 322.8C514 327.7 527 337.3 533.5 342.2L540 347L540 268L533.5 264.8C527 261.7 514 255.3 501.2 253.7C488.3 252 475.7 255 462.8 251.7C450 248.3 437 238.7 424.2 213.2C411.3 187.7 398.7 146.3 385.8 144.8C373 143.3 360 181.7 347.2 202.3C334.3 223 321.7 226 308.8 219.5C296 213 283 197 270 197C257 197 244 213 231.2 217.8C218.3 222.7 205.7 216.3 192.8 224.3C180 232.3 167 254.7 154.2 253.2C141.3 251.7 128.7 226.3 115.8 210.3C103 194.3 90 187.7 77.2 178C64.3 168.3 51.7 155.7 38.8 168.5C26 181.3 13 219.7 6.5 238.8L0 258Z" fill="#a7d4fe"></path><path d="M0 404L6.5 380C13 356 26 308 38.8 285.7C51.7 263.3 64.3 266.7 77.2 277.8C90 289 103 308 115.8 320.8C128.7 333.7 141.3 340.3 154.2 342C167 343.7 180 340.3 192.8 340.3C205.7 340.3 218.3 343.7 231.2 338.8C244 334 257 321 270 325.7C283 330.3 296 352.7 308.8 355.8C321.7 359 334.3 343 347.2 315.8C360 288.7 373 250.3 385.8 256.8C398.7 263.3 411.3 314.7 424.2 337.2C437 359.7 450 353.3 462.8 350.2C475.7 347 488.3 347 501.2 355C514 363 527 379 533.5 387L540 395L540 345L533.5 340.2C527 335.3 514 325.7 501.2 320.8C488.3 316 475.7 316 462.8 314.3C450 312.7 437 309.3 424.2 283.7C411.3 258 398.7 210 385.8 205.2C373 200.3 360 238.7 347.2 265.8C334.3 293 321.7 309 308.8 301C296 293 283 261 270 253C257 245 244 261 231.2 272.3C218.3 283.7 205.7 290.3 192.8 296.8C180 303.3 167 309.7 154.2 303.2C141.3 296.7 128.7 277.3 115.8 262.8C103 248.3 90 238.7 77.2 229.2C64.3 219.7 51.7 210.3 38.8 228C26 245.7 13 290.3 6.5 312.7L0 335Z" fill="#9fd0fd"></path><path d="M0 491L6.5 462.2C13 433.3 26 375.7 38.8 361.2C51.7 346.7 64.3 375.3 77.2 391.3C90 407.3 103 410.7 115.8 423.5C128.7 436.3 141.3 458.7 154.2 461.8C167 465 180 449 192.8 434.7C205.7 420.3 218.3 407.7 231.2 401.3C244 395 257 395 270 401.3C283 407.7 296 420.3 308.8 425C321.7 429.7 334.3 426.3 347.2 413.5C360 400.7 373 378.3 385.8 378.3C398.7 378.3 411.3 400.7 424.2 411.8C437 423 450 423 462.8 431C475.7 439 488.3 455 501.2 469.5C514 484 527 497 533.5 503.5L540 510L540 393L533.5 385C527 377 514 361 501.2 353C488.3 345 475.7 345 462.8 348.2C450 351.3 437 357.7 424.2 335.2C411.3 312.7 398.7 261.3 385.8 254.8C373 248.3 360 286.7 347.2 313.8C334.3 341 321.7 357 308.8 353.8C296 350.7 283 328.3 270 323.7C257 319 244 332 231.2 336.8C218.3 341.7 205.7 338.3 192.8 338.3C180 338.3 167 341.7 154.2 340C141.3 338.3 128.7 331.7 115.8 318.8C103 306 90 287 77.2 275.8C64.3 264.7 51.7 261.3 38.8 283.7C26 306 13 354 6.5 378L0 402Z" fill="#96cdfd"></path><path d="M0 539L6.5 507C13 475 26 411 38.8 399.7C51.7 388.3 64.3 429.7 77.2 445.7C90 461.7 103 452.3 115.8 458.8C128.7 465.3 141.3 487.7 154.2 490.8C167 494 180 478 192.8 465.2C205.7 452.3 218.3 442.7 231.2 441C244 439.3 257 445.7 270 453.7C283 461.7 296 471.3 308.8 477.8C321.7 484.3 334.3 487.7 347.2 476.5C360 465.3 373 439.7 385.8 438C398.7 436.3 411.3 458.7 424.2 471.5C437 484.3 450 487.7 462.8 497.3C475.7 507 488.3 523 501.2 535.7C514 548.3 527 557.7 533.5 562.3L540 567L540 508L533.5 501.5C527 495 514 482 501.2 467.5C488.3 453 475.7 437 462.8 429C450 421 437 421 424.2 409.8C411.3 398.7 398.7 376.3 385.8 376.3C373 376.3 360 398.7 347.2 411.5C334.3 424.3 321.7 427.7 308.8 423C296 418.3 283 405.7 270 399.3C257 393 244 393 231.2 399.3C218.3 405.7 205.7 418.3 192.8 432.7C180 447 167 463 154.2 459.8C141.3 456.7 128.7 434.3 115.8 421.5C103 408.7 90 405.3 77.2 389.3C64.3 373.3 51.7 344.7 38.8 359.2C26 373.7 13 431.3 6.5 460.2L0 489Z" fill="#8dc7fb"></path><path d="M0 567L6.5 543C13 519 26 471 38.8 471C51.7 471 64.3 519 77.2 538.3C90 557.7 103 548.3 115.8 545.2C128.7 542 141.3 545 154.2 538.5C167 532 180 516 192.8 514.5C205.7 513 218.3 526 231.2 526C244 526 257 513 270 513C283 513 296 526 308.8 530.8C321.7 535.7 334.3 532.3 347.2 525.8C360 519.3 373 509.7 385.8 511.3C398.7 513 411.3 526 424.2 535.7C437 545.3 450 551.7 462.8 561.2C475.7 570.7 488.3 583.3 501.2 591.3C514 599.3 527 602.7 533.5 604.3L540 606L540 565L533.5 560.3C527 555.7 514 546.3 501.2 533.7C488.3 521 475.7 505 462.8 495.3C450 485.7 437 482.3 424.2 469.5C411.3 456.7 398.7 434.3 385.8 436C373 437.7 360 463.3 347.2 474.5C334.3 485.7 321.7 482.3 308.8 475.8C296 469.3 283 459.7 270 451.7C257 443.7 244 437.3 231.2 439C218.3 440.7 205.7 450.3 192.8 463.2C180 476 167 492 154.2 488.8C141.3 485.7 128.7 463.3 115.8 456.8C103 450.3 90 459.7 77.2 443.7C64.3 427.7 51.7 386.3 38.8 397.7C26 409 13 473 6.5 505L0 537Z" fill="#84c0f7"></path><path d="M0 721L6.5 706.7C13 692.3 26 663.7 38.8 681.3C51.7 699 64.3 763 77.2 779C90 795 103 763 115.8 737.3C128.7 711.7 141.3 692.3 154.2 695.5C167 698.7 180 724.3 192.8 721.2C205.7 718 218.3 686 231.2 679.5C244 673 257 692 270 695.2C283 698.3 296 685.7 308.8 689C321.7 692.3 334.3 711.7 347.2 708.5C360 705.3 373 679.7 385.8 676.3C398.7 673 411.3 692 424.2 714.3C437 736.7 450 762.3 462.8 783.2C475.7 804 488.3 820 501.2 812C514 804 527 772 533.5 756L540 740L540 604L533.5 602.3C527 600.7 514 597.3 501.2 589.3C488.3 581.3 475.7 568.7 462.8 559.2C450 549.7 437 543.3 424.2 533.7C411.3 524 398.7 511 385.8 509.3C373 507.7 360 517.3 347.2 523.8C334.3 530.3 321.7 533.7 308.8 528.8C296 524 283 511 270 511C257 511 244 524 231.2 524C218.3 524 205.7 511 192.8 512.5C180 514 167 530 154.2 536.5C141.3 543 128.7 540 115.8 543.2C103 546.3 90 555.7 77.2 536.3C64.3 517 51.7 469 38.8 469C26 469 13 517 6.5 541L0 565Z" fill="#7bb9f3"></path><path d="M0 759L6.5 746.3C13 733.7 26 708.3 38.8 724.3C51.7 740.3 64.3 797.7 77.2 815.2C90 832.7 103 810.3 115.8 788C128.7 765.7 141.3 743.3 154.2 748.2C167 753 180 785 192.8 780.2C205.7 775.3 218.3 733.7 231.2 727.3C244 721 257 750 270 750C283 750 296 721 308.8 721C321.7 721 334.3 750 347.2 750C360 750 373 721 385.8 713C398.7 705 411.3 718 424.2 742C437 766 450 801 462.8 826.5C475.7 852 488.3 868 501.2 861.7C514 855.3 527 826.7 533.5 812.3L540 798L540 738L533.5 754C527 770 514 802 501.2 810C488.3 818 475.7 802 462.8 781.2C450 760.3 437 734.7 424.2 712.3C411.3 690 398.7 671 385.8 674.3C373 677.7 360 703.3 347.2 706.5C334.3 709.7 321.7 690.3 308.8 687C296 683.7 283 696.3 270 693.2C257 690 244 671 231.2 677.5C218.3 684 205.7 716 192.8 719.2C180 722.3 167 696.7 154.2 693.5C141.3 690.3 128.7 709.7 115.8 735.3C103 761 90 793 77.2 777C64.3 761 51.7 697 38.8 679.3C26 661.7 13 690.3 6.5 704.7L0 719Z" fill="#72b1ef"></path><path d="M0 961L6.5 961C13 961 26 961 38.8 961C51.7 961 64.3 961 77.2 961C90 961 103 961 115.8 961C128.7 961 141.3 961 154.2 961C167 961 180 961 192.8 961C205.7 961 218.3 961 231.2 961C244 961 257 961 270 961C283 961 296 961 308.8 961C321.7 961 334.3 961 347.2 961C360 961 373 961 385.8 961C398.7 961 411.3 961 424.2 961C437 961 450 961 462.8 961C475.7 961 488.3 961 501.2 961C514 961 527 961 533.5 961L540 961L540 796L533.5 810.3C527 824.7 514 853.3 501.2 859.7C488.3 866 475.7 850 462.8 824.5C450 799 437 764 424.2 740C411.3 716 398.7 703 385.8 711C373 719 360 748 347.2 748C334.3 748 321.7 719 308.8 719C296 719 283 748 270 748C257 748 244 719 231.2 725.3C218.3 731.7 205.7 773.3 192.8 778.2C180 783 167 751 154.2 746.2C141.3 741.3 128.7 763.7 115.8 786C103 808.3 90 830.7 77.2 813.2C64.3 795.7 51.7 738.3 38.8 722.3C26 706.3 13 731.7 6.5 744.3L0 757Z" fill="#69aaeb"></path></svg>