<svg id="visual" viewBox="0 0 540 960" width="540" height="960" xmlns="http://www.w3.org/2000/svg" xmlns:xlink="http://www.w3.org/1999/xlink" version="1.1"><path d="M0 39L4.7 43.8C9.3 48.7 18.7 58.3 28.2 60C37.7 61.7 47.3 55.3 56.8 61.8C66.3 68.3 75.7 87.7 85.2 97.3C94.7 107 104.3 107 113.8 97.3C123.3 87.7 132.7 68.3 142.2 57C151.7 45.7 161.3 42.3 170.8 48.7C180.3 55 189.7 71 199 79C208.3 87 217.7 87 227.2 83.8C236.7 80.7 246.3 74.3 255.8 69.7C265.3 65 274.7 62 284.2 65.2C293.7 68.3 303.3 77.7 312.8 84C322.3 90.3 331.7 93.7 341 90.5C350.3 87.3 359.7 77.7 369.2 71.3C378.7 65 388.3 62 397.8 58.8C407.3 55.7 416.7 52.3 426.2 57C435.7 61.7 445.3 74.3 454.8 79.2C464.3 84 473.7 81 483.2 79.5C492.7 78 502.3 78 511.8 71.5C521.3 65 530.7 52 535.3 45.5L540 39L540 0L535.3 0C530.7 0 521.3 0 511.8 0C502.3 0 492.7 0 483.2 0C473.7 0 464.3 0 454.8 0C445.3 0 435.7 0 426.2 0C416.7 0 407.3 0 397.8 0C388.3 0 378.7 0 369.2 0C359.7 0 350.3 0 341 0C331.7 0 322.3 0 312.8 0C303.3 0 293.7 0 284.2 0C274.7 0 265.3 0 255.8 0C246.3 0 236.7 0 227.2 0C217.7 0 208.3 0 199 0C189.7 0 180.3 0 170.8 0C161.3 0 151.7 0 142.2 0C132.7 0 123.3 0 113.8 0C104.3 0 94.7 0 85.2 0C75.7 0 66.3 0 56.8 0C47.3 0 37.7 0 28.2 0C18.7 0 9.3 0 4.7 0L0 0Z" fill="#91c3f1"></path><path d="M0 97L4.7 100.2C9.3 103.3 18.7 109.7 28.2 108C37.7 106.3 47.3 96.7 56.8 99.8C66.3 103 75.7 119 85.2 131.8C94.7 144.7 104.3 154.3 113.8 146.3C123.3 138.3 132.7 112.7 142.2 98.3C151.7 84 161.3 81 170.8 90.7C180.3 100.3 189.7 122.7 199 130.7C208.3 138.7 217.7 132.3 227.2 129.2C236.7 126 246.3 126 255.8 118C265.3 110 274.7 94 284.2 90.8C293.7 87.7 303.3 97.3 312.8 110.2C322.3 123 331.7 139 341 140.5C350.3 142 359.7 129 369.2 124.2C378.7 119.3 388.3 122.7 397.8 121.2C407.3 119.7 416.7 113.3 426.2 111.7C435.7 110 445.3 113 454.8 114.5C464.3 116 473.7 116 483.2 116C492.7 116 502.3 116 511.8 106.5C521.3 97 530.7 78 535.3 68.5L540 59L540 37L535.3 43.5C530.7 50 521.3 63 511.8 69.5C502.3 76 492.7 76 483.2 77.5C473.7 79 464.3 82 454.8 77.2C445.3 72.3 435.7 59.7 426.2 55C416.7 50.3 407.3 53.7 397.8 56.8C388.3 60 378.7 63 369.2 69.3C359.7 75.7 350.3 85.3 341 88.5C331.7 91.7 322.3 88.3 312.8 82C303.3 75.7 293.7 66.3 284.2 63.2C274.7 60 265.3 63 255.8 67.7C246.3 72.3 236.7 78.7 227.2 81.8C217.7 85 208.3 85 199 77C189.7 69 180.3 53 170.8 46.7C161.3 40.3 151.7 43.7 142.2 55C132.7 66.3 123.3 85.7 113.8 95.3C104.3 105 94.7 105 85.2 95.3C75.7 85.7 66.3 66.3 56.8 59.8C47.3 53.3 37.7 59.7 28.2 58C18.7 56.3 9.3 46.7 4.7 41.8L0 37Z" fill="#88bef0"></path><path d="M0 145L4.7 149.8C9.3 154.7 18.7 164.3 28.2 159.5C37.7 154.7 47.3 135.3 56.8 136.8C66.3 138.3 75.7 160.7 85.2 175.2C94.7 189.7 104.3 196.3 113.8 183.7C123.3 171 132.7 139 142.2 123C151.7 107 161.3 107 170.8 118.2C180.3 129.3 189.7 151.7 199 159.7C208.3 167.7 217.7 161.3 227.2 156.5C236.7 151.7 246.3 148.3 255.8 143.5C265.3 138.7 274.7 132.3 284.2 132.3C293.7 132.3 303.3 138.7 312.8 148.2C322.3 157.7 331.7 170.3 341 173.5C350.3 176.7 359.7 170.3 369.2 165.7C378.7 161 388.3 158 397.8 151.7C407.3 145.3 416.7 135.7 426.2 137.2C435.7 138.7 445.3 151.3 454.8 154.5C464.3 157.7 473.7 151.3 483.2 149.8C492.7 148.3 502.3 151.7 511.8 145.3C521.3 139 530.7 123 535.3 115L540 107L540 57L535.3 66.5C530.7 76 521.3 95 511.8 104.5C502.3 114 492.7 114 483.2 114C473.7 114 464.3 114 454.8 112.5C445.3 111 435.7 108 426.2 109.7C416.7 111.3 407.3 117.7 397.8 119.2C388.3 120.7 378.7 117.3 369.2 122.2C359.7 127 350.3 140 341 138.5C331.7 137 322.3 121 312.8 108.2C303.3 95.3 293.7 85.7 284.2 88.8C274.7 92 265.3 108 255.8 116C246.3 124 236.7 124 227.2 127.2C217.7 130.3 208.3 136.7 199 128.7C189.7 120.7 180.3 98.3 170.8 88.7C161.3 79 151.7 82 142.2 96.3C132.7 110.7 123.3 136.3 113.8 144.3C104.3 152.3 94.7 142.7 85.2 129.8C75.7 117 66.3 101 56.8 97.8C47.3 94.7 37.7 104.3 28.2 106C18.7 107.7 9.3 101.3 4.7 98.2L0 95Z" fill="#7fb9ef"></path><path d="M0 279L4.7 295C9.3 311 18.7 343 28.2 336.7C37.7 330.3 47.3 285.7 56.8 292.2C66.3 298.7 75.7 356.3 85.2 374C94.7 391.7 104.3 369.3 113.8 350.2C123.3 331 132.7 315 142.2 324.5C151.7 334 161.3 369 170.8 394.5C180.3 420 189.7 436 199 440.8C208.3 445.7 217.7 439.3 227.2 413.8C236.7 388.3 246.3 343.7 255.8 324.5C265.3 305.3 274.7 311.7 284.2 318C293.7 324.3 303.3 330.7 312.8 346.7C322.3 362.7 331.7 388.3 341 378.7C350.3 369 359.7 324 369.2 320.8C378.7 317.7 388.3 356.3 397.8 351.7C407.3 347 416.7 299 426.2 295.7C435.7 292.3 445.3 333.7 454.8 333.7C464.3 333.7 473.7 292.3 483.2 298.8C492.7 305.3 502.3 359.7 511.8 354.8C521.3 350 530.7 286 535.3 254L540 222L540 105L535.3 113C530.7 121 521.3 137 511.8 143.3C502.3 149.7 492.7 146.3 483.2 147.8C473.7 149.3 464.3 155.7 454.8 152.5C445.3 149.3 435.7 136.7 426.2 135.2C416.7 133.7 407.3 143.3 397.8 149.7C388.3 156 378.7 159 369.2 163.7C359.7 168.3 350.3 174.7 341 171.5C331.7 168.3 322.3 155.7 312.8 146.2C303.3 136.7 293.7 130.3 284.2 130.3C274.7 130.3 265.3 136.7 255.8 141.5C246.3 146.3 236.7 149.7 227.2 154.5C217.7 159.3 208.3 165.7 199 157.7C189.7 149.7 180.3 127.3 170.8 116.2C161.3 105 151.7 105 142.2 121C132.7 137 123.3 169 113.8 181.7C104.3 194.3 94.7 187.7 85.2 173.2C75.7 158.7 66.3 136.3 56.8 134.8C47.3 133.3 37.7 152.7 28.2 157.5C18.7 162.3 9.3 152.7 4.7 147.8L0 143Z" fill="#75b4ee"></path><path d="M0 337L4.7 362.7C9.3 388.3 18.7 439.7 28.2 446C37.7 452.3 47.3 413.7 56.8 423.2C66.3 432.7 75.7 490.3 85.2 508C94.7 525.7 104.3 503.3 113.8 479.3C123.3 455.3 132.7 429.7 142.2 428C151.7 426.3 161.3 448.7 170.8 475.8C180.3 503 189.7 535 199 541.5C208.3 548 217.7 529 227.2 503.5C236.7 478 246.3 446 255.8 431.5C265.3 417 274.7 420 284.2 421.5C293.7 423 303.3 423 312.8 445.5C322.3 468 331.7 513 341 500.3C350.3 487.7 359.7 417.3 369.2 399.7C378.7 382 388.3 417 397.8 431.3C407.3 445.7 416.7 439.3 426.2 444.2C435.7 449 445.3 465 454.8 449C464.3 433 473.7 385 483.2 388.2C492.7 391.3 502.3 445.7 511.8 452C521.3 458.3 530.7 416.7 535.3 395.8L540 375L540 220L535.3 252C530.7 284 521.3 348 511.8 352.8C502.3 357.7 492.7 303.3 483.2 296.8C473.7 290.3 464.3 331.7 454.8 331.7C445.3 331.7 435.7 290.3 426.2 293.7C416.7 297 407.3 345 397.8 349.7C388.3 354.3 378.7 315.7 369.2 318.8C359.7 322 350.3 367 341 376.7C331.7 386.3 322.3 360.7 312.8 344.7C303.3 328.7 293.7 322.3 284.2 316C274.7 309.7 265.3 303.3 255.8 322.5C246.3 341.7 236.7 386.3 227.2 411.8C217.7 437.3 208.3 443.7 199 438.8C189.7 434 180.3 418 170.8 392.5C161.3 367 151.7 332 142.2 322.5C132.7 313 123.3 329 113.8 348.2C104.3 367.3 94.7 389.7 85.2 372C75.7 354.3 66.3 296.7 56.8 290.2C47.3 283.7 37.7 328.3 28.2 334.7C18.7 341 9.3 309 4.7 293L0 277Z" fill="#6bafed"></path><path d="M0 395L4.7 417.3C9.3 439.7 18.7 484.3 28.2 485.8C37.7 487.3 47.3 445.7 56.8 460C66.3 474.3 75.7 544.7 85.2 568.7C94.7 592.7 104.3 570.3 113.8 541.7C123.3 513 132.7 478 142.2 479.7C151.7 481.3 161.3 519.7 170.8 545.2C180.3 570.7 189.7 583.3 199 583.3C208.3 583.3 217.7 570.7 227.2 556.3C236.7 542 246.3 526 255.8 518C265.3 510 274.7 510 284.2 505.2C293.7 500.3 303.3 490.7 312.8 505C322.3 519.3 331.7 557.7 341 549.7C350.3 541.7 359.7 487.3 369.2 474.5C378.7 461.7 388.3 490.3 397.8 501.5C407.3 512.7 416.7 506.3 426.2 504.8C435.7 503.3 445.3 506.7 454.8 484.3C464.3 462 473.7 414 483.2 420.3C492.7 426.7 502.3 487.3 511.8 501.7C521.3 516 530.7 484 535.3 468L540 452L540 373L535.3 393.8C530.7 414.7 521.3 456.3 511.8 450C502.3 443.7 492.7 389.3 483.2 386.2C473.7 383 464.3 431 454.8 447C445.3 463 435.7 447 426.2 442.2C416.7 437.3 407.3 443.7 397.8 429.3C388.3 415 378.7 380 369.2 397.7C359.7 415.3 350.3 485.7 341 498.3C331.7 511 322.3 466 312.8 443.5C303.3 421 293.7 421 284.2 419.5C274.7 418 265.3 415 255.8 429.5C246.3 444 236.7 476 227.2 501.5C217.7 527 208.3 546 199 539.5C189.7 533 180.3 501 170.8 473.8C161.3 446.7 151.7 424.3 142.2 426C132.7 427.7 123.3 453.3 113.8 477.3C104.3 501.3 94.7 523.7 85.2 506C75.7 488.3 66.3 430.7 56.8 421.2C47.3 411.7 37.7 450.3 28.2 444C18.7 437.7 9.3 386.3 4.7 360.7L0 335Z" fill="#61aaec"></path><path d="M0 462L4.7 481.2C9.3 500.3 18.7 538.7 28.2 538.7C37.7 538.7 47.3 500.3 56.8 518C66.3 535.7 75.7 609.3 85.2 630.2C94.7 651 104.3 619 113.8 591.7C123.3 564.3 132.7 541.7 142.2 541.7C151.7 541.7 161.3 564.3 170.8 586.8C180.3 609.3 189.7 631.7 199 638C208.3 644.3 217.7 634.7 227.2 617C236.7 599.3 246.3 573.7 255.8 559.3C265.3 545 274.7 542 284.2 537.2C293.7 532.3 303.3 525.7 312.8 541.7C322.3 557.7 331.7 596.3 341 593.2C350.3 590 359.7 545 369.2 532.2C378.7 519.3 388.3 538.7 397.8 543.5C407.3 548.3 416.7 538.7 426.2 543.5C435.7 548.3 445.3 567.7 454.8 546.8C464.3 526 473.7 465 483.2 461.7C492.7 458.3 502.3 512.7 511.8 525.5C521.3 538.3 530.7 509.7 535.3 495.3L540 481L540 450L535.3 466C530.7 482 521.3 514 511.8 499.7C502.3 485.3 492.7 424.7 483.2 418.3C473.7 412 464.3 460 454.8 482.3C445.3 504.7 435.7 501.3 426.2 502.8C416.7 504.3 407.3 510.7 397.8 499.5C388.3 488.3 378.7 459.7 369.2 472.5C359.7 485.3 350.3 539.7 341 547.7C331.7 555.7 322.3 517.3 312.8 503C303.3 488.7 293.7 498.3 284.2 503.2C274.7 508 265.3 508 255.8 516C246.3 524 236.7 540 227.2 554.3C217.7 568.7 208.3 581.3 199 581.3C189.7 581.3 180.3 568.7 170.8 543.2C161.3 517.7 151.7 479.3 142.2 477.7C132.7 476 123.3 511 113.8 539.7C104.3 568.3 94.7 590.7 85.2 566.7C75.7 542.7 66.3 472.3 56.8 458C47.3 443.7 37.7 485.3 28.2 483.8C18.7 482.3 9.3 437.7 4.7 415.3L0 393Z" fill="#5aa3e6"></path><path d="M0 577L4.7 594.7C9.3 612.3 18.7 647.7 28.2 649.3C37.7 651 47.3 619 56.8 625.3C66.3 631.7 75.7 676.3 85.2 693.8C94.7 711.3 104.3 701.7 113.8 680.8C123.3 660 132.7 628 142.2 624.8C151.7 621.7 161.3 647.3 170.8 668.2C180.3 689 189.7 705 199 716.2C208.3 727.3 217.7 733.7 227.2 725.7C236.7 717.7 246.3 695.3 255.8 668.2C265.3 641 274.7 609 284.2 604.2C293.7 599.3 303.3 621.7 312.8 640.8C322.3 660 331.7 676 341 666.5C350.3 657 359.7 622 369.2 615.7C378.7 609.3 388.3 631.7 397.8 631.7C407.3 631.7 416.7 609.3 426.2 615.7C435.7 622 445.3 657 454.8 647.3C464.3 637.7 473.7 583.3 483.2 572.2C492.7 561 502.3 593 511.8 602.7C521.3 612.3 530.7 599.7 535.3 593.3L540 587L540 479L535.3 493.3C530.7 507.7 521.3 536.3 511.8 523.5C502.3 510.7 492.7 456.3 483.2 459.7C473.7 463 464.3 524 454.8 544.8C445.3 565.7 435.7 546.3 426.2 541.5C416.7 536.7 407.3 546.3 397.8 541.5C388.3 536.7 378.7 517.3 369.2 530.2C359.7 543 350.3 588 341 591.2C331.7 594.3 322.3 555.7 312.8 539.7C303.3 523.7 293.7 530.3 284.2 535.2C274.7 540 265.3 543 255.8 557.3C246.3 571.7 236.7 597.3 227.2 615C217.7 632.7 208.3 642.3 199 636C189.7 629.7 180.3 607.3 170.8 584.8C161.3 562.3 151.7 539.7 142.2 539.7C132.7 539.7 123.3 562.3 113.8 589.7C104.3 617 94.7 649 85.2 628.2C75.7 607.3 66.3 533.7 56.8 516C47.3 498.3 37.7 536.7 28.2 536.7C18.7 536.7 9.3 498.3 4.7 479.2L0 460Z" fill="#559adb"></path><path d="M0 606L4.7 625.2C9.3 644.3 18.7 682.7 28.2 682.7C37.7 682.7 47.3 644.3 56.8 652.3C66.3 660.3 75.7 714.7 85.2 733.8C94.7 753 104.3 737 113.8 717.8C123.3 698.7 132.7 676.3 142.2 676.3C151.7 676.3 161.3 698.7 170.8 716.2C180.3 733.7 189.7 746.3 199 754.3C208.3 762.3 217.7 765.7 227.2 754.5C236.7 743.3 246.3 717.7 255.8 695.3C265.3 673 274.7 654 284.2 649.2C293.7 644.3 303.3 653.7 312.8 666.3C322.3 679 331.7 695 341 688.7C350.3 682.3 359.7 653.7 369.2 650.5C378.7 647.3 388.3 669.7 397.8 669.7C407.3 669.7 416.7 647.3 426.2 650.5C435.7 653.7 445.3 682.3 454.8 676C464.3 669.7 473.7 628.3 483.2 623.7C492.7 619 502.3 651 511.8 657.3C521.3 663.7 530.7 644.3 535.3 634.7L540 625L540 585L535.3 591.3C530.7 597.7 521.3 610.3 511.8 600.7C502.3 591 492.7 559 483.2 570.2C473.7 581.3 464.3 635.7 454.8 645.3C445.3 655 435.7 620 426.2 613.7C416.7 607.3 407.3 629.7 397.8 629.7C388.3 629.7 378.7 607.3 369.2 613.7C359.7 620 350.3 655 341 664.5C331.7 674 322.3 658 312.8 638.8C303.3 619.7 293.7 597.3 284.2 602.2C274.7 607 265.3 639 255.8 666.2C246.3 693.3 236.7 715.7 227.2 723.7C217.7 731.7 208.3 725.3 199 714.2C189.7 703 180.3 687 170.8 666.2C161.3 645.3 151.7 619.7 142.2 622.8C132.7 626 123.3 658 113.8 678.8C104.3 699.7 94.7 709.3 85.2 691.8C75.7 674.3 66.3 629.7 56.8 623.3C47.3 617 37.7 649 28.2 647.3C18.7 645.7 9.3 610.3 4.7 592.7L0 575Z" fill="#5092d1"></path><path d="M0 683L4.7 694.2C9.3 705.3 18.7 727.7 28.2 724.3C37.7 721 47.3 692 56.8 700C66.3 708 75.7 753 85.2 770.7C94.7 788.3 104.3 778.7 113.8 767.5C123.3 756.3 132.7 743.7 142.2 740.5C151.7 737.3 161.3 743.7 170.8 756.3C180.3 769 189.7 788 199 799.2C208.3 810.3 217.7 813.7 227.2 801C236.7 788.3 246.3 759.7 255.8 740.5C265.3 721.3 274.7 711.7 284.2 714.8C293.7 718 303.3 734 312.8 743.5C322.3 753 331.7 756 341 741.5C350.3 727 359.7 695 369.2 690.3C378.7 685.7 388.3 708.3 397.8 714.8C407.3 721.3 416.7 711.7 426.2 718C435.7 724.3 445.3 746.7 454.8 732.2C464.3 717.7 473.7 666.3 483.2 661.5C492.7 656.7 502.3 698.3 511.8 711.2C521.3 724 530.7 708 535.3 700L540 692L540 623L535.3 632.7C530.7 642.3 521.3 661.7 511.8 655.3C502.3 649 492.7 617 483.2 621.7C473.7 626.3 464.3 667.7 454.8 674C445.3 680.3 435.7 651.7 426.2 648.5C416.7 645.3 407.3 667.7 397.8 667.7C388.3 667.7 378.7 645.3 369.2 648.5C359.7 651.7 350.3 680.3 341 686.7C331.7 693 322.3 677 312.8 664.3C303.3 651.7 293.7 642.3 284.2 647.2C274.7 652 265.3 671 255.8 693.3C246.3 715.7 236.7 741.3 227.2 752.5C217.7 763.7 208.3 760.3 199 752.3C189.7 744.3 180.3 731.7 170.8 714.2C161.3 696.7 151.7 674.3 142.2 674.3C132.7 674.3 123.3 696.7 113.8 715.8C104.3 735 94.7 751 85.2 731.8C75.7 712.7 66.3 658.3 56.8 650.3C47.3 642.3 37.7 680.7 28.2 680.7C18.7 680.7 9.3 642.3 4.7 623.2L0 604Z" fill="#4b8ac6"></path><path d="M0 932L4.7 933.7C9.3 935.3 18.7 938.7 28.2 940.3C37.7 942 47.3 942 56.8 940.3C66.3 938.7 75.7 935.3 85.2 933.7C94.7 932 104.3 932 113.8 932C123.3 932 132.7 932 142.2 930.5C151.7 929 161.3 926 170.8 927.7C180.3 929.3 189.7 935.7 199 938.8C208.3 942 217.7 942 227.2 937.2C236.7 932.3 246.3 922.7 255.8 919.5C265.3 916.3 274.7 919.7 284.2 924.5C293.7 929.3 303.3 935.7 312.8 937.2C322.3 938.7 331.7 935.3 341 933.7C350.3 932 359.7 932 369.2 930.5C378.7 929 388.3 926 397.8 924.5C407.3 923 416.7 923 426.2 923C435.7 923 445.3 923 454.8 923C464.3 923 473.7 923 483.2 924.5C492.7 926 502.3 929 511.8 929C521.3 929 530.7 926 535.3 924.5L540 923L540 690L535.3 698C530.7 706 521.3 722 511.8 709.2C502.3 696.3 492.7 654.7 483.2 659.5C473.7 664.3 464.3 715.7 454.8 730.2C445.3 744.7 435.7 722.3 426.2 716C416.7 709.7 407.3 719.3 397.8 712.8C388.3 706.3 378.7 683.7 369.2 688.3C359.7 693 350.3 725 341 739.5C331.7 754 322.3 751 312.8 741.5C303.3 732 293.7 716 284.2 712.8C274.7 709.7 265.3 719.3 255.8 738.5C246.3 757.7 236.7 786.3 227.2 799C217.7 811.7 208.3 808.3 199 797.2C189.7 786 180.3 767 170.8 754.3C161.3 741.7 151.7 735.3 142.2 738.5C132.7 741.7 123.3 754.3 113.8 765.5C104.3 776.7 94.7 786.3 85.2 768.7C75.7 751 66.3 706 56.8 698C47.3 690 37.7 719 28.2 722.3C18.7 725.7 9.3 703.3 4.7 692.2L0 681Z" fill="#4682bc"></path><path d="M0 961L4.7 961C9.3 961 18.7 961 28.2 961C37.7 961 47.3 961 56.8 961C66.3 961 75.7 961 85.2 961C94.7 961 104.3 961 113.8 961C123.3 961 132.7 961 142.2 961C151.7 961 161.3 961 170.8 961C180.3 961 189.7 961 199 961C208.3 961 217.7 961 227.2 961C236.7 961 246.3 961 255.8 961C265.3 961 274.7 961 284.2 961C293.7 961 303.3 961 312.8 961C322.3 961 331.7 961 341 961C350.3 961 359.7 961 369.2 961C378.7 961 388.3 961 397.8 961C407.3 961 416.7 961 426.2 961C435.7 961 445.3 961 454.8 961C464.3 961 473.7 961 483.2 961C492.7 961 502.3 961 511.8 961C521.3 961 530.7 961 535.3 961L540 961L540 921L535.3 922.5C530.7 924 521.3 927 511.8 927C502.3 927 492.7 924 483.2 922.5C473.7 921 464.3 921 454.8 921C445.3 921 435.7 921 426.2 921C416.7 921 407.3 921 397.8 922.5C388.3 924 378.7 927 369.2 928.5C359.7 930 350.3 930 341 931.7C331.7 933.3 322.3 936.7 312.8 935.2C303.3 933.7 293.7 927.3 284.2 922.5C274.7 917.7 265.3 914.3 255.8 917.5C246.3 920.7 236.7 930.3 227.2 935.2C217.7 940 208.3 940 199 936.8C189.7 933.7 180.3 927.3 170.8 925.7C161.3 924 151.7 927 142.2 928.5C132.7 930 123.3 930 113.8 930C104.3 930 94.7 930 85.2 931.7C75.7 933.3 66.3 936.7 56.8 938.3C47.3 940 37.7 940 28.2 938.3C18.7 936.7 9.3 933.3 4.7 931.7L0 930Z" fill="#417ab2"></path></svg>