<svg id="visual" viewBox="0 0 960 540" xmlns="http://www.w3.org/2000/svg" xmlns:xlink="http://www.w3.org/1999/xlink" version="1.1"><path d="M0 159L13.3 163.5C26.7 168 53.3 177 80 175.3C106.7 173.7 133.3 161.3 160 162.2C186.7 163 213.3 177 240 183.7C266.7 190.3 293.3 189.7 320 194.8C346.7 200 373.3 211 400 206.3C426.7 201.7 453.3 181.3 480 171.8C506.7 162.3 533.3 163.7 560 168C586.7 172.3 613.3 179.7 640 177.5C666.7 175.3 693.3 163.7 720 158.7C746.7 153.7 773.3 155.3 800 163.8C826.7 172.3 853.3 187.7 880 195C906.7 202.3 933.3 201.7 946.7 201.3L960 201L960 0L946.7 0C933.3 0 906.7 0 880 0C853.3 0 826.7 0 800 0C773.3 0 746.7 0 720 0C693.3 0 666.7 0 640 0C613.3 0 586.7 0 560 0C533.3 0 506.7 0 480 0C453.3 0 426.7 0 400 0C373.3 0 346.7 0 320 0C293.3 0 266.7 0 240 0C213.3 0 186.7 0 160 0C133.3 0 106.7 0 80 0C53.3 0 26.7 0 13.3 0L0 0Z" fill="#bce1ff"></path><path d="M0 144L13.3 143.5C26.7 143 53.3 142 80 149.5C106.7 157 133.3 173 160 178.5C186.7 184 213.3 179 240 174.3C266.7 169.7 293.3 165.3 320 163.7C346.7 162 373.3 163 400 159C426.7 155 453.3 146 480 144.7C506.7 143.3 533.3 149.7 560 153.2C586.7 156.7 613.3 157.3 640 156.3C666.7 155.3 693.3 152.7 720 146.8C746.7 141 773.3 132 800 128.8C826.7 125.7 853.3 128.3 880 137.7C906.7 147 933.3 163 946.7 171L960 179L960 0L946.7 0C933.3 0 906.7 0 880 0C853.3 0 826.7 0 800 0C773.3 0 746.7 0 720 0C693.3 0 666.7 0 640 0C613.3 0 586.7 0 560 0C533.3 0 506.7 0 480 0C453.3 0 426.7 0 400 0C373.3 0 346.7 0 320 0C293.3 0 266.7 0 240 0C213.3 0 186.7 0 160 0C133.3 0 106.7 0 80 0C53.3 0 26.7 0 13.3 0L0 0Z" fill="#addaff"></path><path d="M0 168L13.3 159.3C26.7 150.7 53.3 133.3 80 124.5C106.7 115.7 133.3 115.3 160 113.3C186.7 111.3 213.3 107.7 240 114.8C266.7 122 293.3 140 320 145C346.7 150 373.3 142 400 145.2C426.7 148.3 453.3 162.7 480 157.3C506.7 152 533.3 127 560 117C586.7 107 613.3 112 640 122.7C666.7 133.3 693.3 149.7 720 152.7C746.7 155.7 773.3 145.3 800 138.8C826.7 132.3 853.3 129.7 880 130C906.7 130.3 933.3 133.7 946.7 135.3L960 137L960 0L946.7 0C933.3 0 906.7 0 880 0C853.3 0 826.7 0 800 0C773.3 0 746.7 0 720 0C693.3 0 666.7 0 640 0C613.3 0 586.7 0 560 0C533.3 0 506.7 0 480 0C453.3 0 426.7 0 400 0C373.3 0 346.7 0 320 0C293.3 0 266.7 0 240 0C213.3 0 186.7 0 160 0C133.3 0 106.7 0 80 0C53.3 0 26.7 0 13.3 0L0 0Z" fill="#9ed2ff"></path><path d="M0 107L13.3 114.2C26.7 121.3 53.3 135.7 80 141.8C106.7 148 133.3 146 160 137.3C186.7 128.7 213.3 113.3 240 104.7C266.7 96 293.3 94 320 100.3C346.7 106.7 373.3 121.3 400 123C426.7 124.7 453.3 113.3 480 110C506.7 106.7 533.3 111.3 560 111.3C586.7 111.3 613.3 106.7 640 103.7C666.7 100.7 693.3 99.3 720 99.8C746.7 100.3 773.3 102.7 800 101.8C826.7 101 853.3 97 880 101.5C906.7 106 933.3 119 946.7 125.5L960 132L960 0L946.7 0C933.3 0 906.7 0 880 0C853.3 0 826.7 0 800 0C773.3 0 746.7 0 720 0C693.3 0 666.7 0 640 0C613.3 0 586.7 0 560 0C533.3 0 506.7 0 480 0C453.3 0 426.7 0 400 0C373.3 0 346.7 0 320 0C293.3 0 266.7 0 240 0C213.3 0 186.7 0 160 0C133.3 0 106.7 0 80 0C53.3 0 26.7 0 13.3 0L0 0Z" fill="#8ecbff"></path><path d="M0 114L13.3 110.7C26.7 107.3 53.3 100.7 80 95.2C106.7 89.7 133.3 85.3 160 89C186.7 92.7 213.3 104.3 240 105.3C266.7 106.3 293.3 96.7 320 92.3C346.7 88 373.3 89 400 93.5C426.7 98 453.3 106 480 111C506.7 116 533.3 118 560 114.8C586.7 111.7 613.3 103.3 640 97.3C666.7 91.3 693.3 87.7 720 87C746.7 86.3 773.3 88.7 800 90.8C826.7 93 853.3 95 880 92.3C906.7 89.7 933.3 82.3 946.7 78.7L960 75L960 0L946.7 0C933.3 0 906.7 0 880 0C853.3 0 826.7 0 800 0C773.3 0 746.7 0 720 0C693.3 0 666.7 0 640 0C613.3 0 586.7 0 560 0C533.3 0 506.7 0 480 0C453.3 0 426.7 0 400 0C373.3 0 346.7 0 320 0C293.3 0 266.7 0 240 0C213.3 0 186.7 0 160 0C133.3 0 106.7 0 80 0C53.3 0 26.7 0 13.3 0L0 0Z" fill="#7ec3ff"></path><path d="M0 68L13.3 72C26.7 76 53.3 84 80 81.8C106.7 79.7 133.3 67.3 160 65.3C186.7 63.3 213.3 71.7 240 78.3C266.7 85 293.3 90 320 89.7C346.7 89.3 373.3 83.7 400 77.8C426.7 72 453.3 66 480 65C506.7 64 533.3 68 560 72.2C586.7 76.3 613.3 80.7 640 81C666.7 81.3 693.3 77.7 720 79.7C746.7 81.7 773.3 89.3 800 89.8C826.7 90.3 853.3 83.7 880 83.2C906.7 82.7 933.3 88.3 946.7 91.2L960 94L960 0L946.7 0C933.3 0 906.7 0 880 0C853.3 0 826.7 0 800 0C773.3 0 746.7 0 720 0C693.3 0 666.7 0 640 0C613.3 0 586.7 0 560 0C533.3 0 506.7 0 480 0C453.3 0 426.7 0 400 0C373.3 0 346.7 0 320 0C293.3 0 266.7 0 240 0C213.3 0 186.7 0 160 0C133.3 0 106.7 0 80 0C53.3 0 26.7 0 13.3 0L0 0Z" fill="#6dbcff"></path><path d="M0 34L13.3 39.3C26.7 44.7 53.3 55.3 80 59C106.7 62.7 133.3 59.3 160 56.7C186.7 54 213.3 52 240 51.7C266.7 51.3 293.3 52.7 320 50C346.7 47.3 373.3 40.7 400 41C426.7 41.3 453.3 48.7 480 53.8C506.7 59 533.3 62 560 62.2C586.7 62.3 613.3 59.7 640 55.3C666.7 51 693.3 45 720 45.7C746.7 46.3 773.3 53.7 800 59.3C826.7 65 853.3 69 880 68.7C906.7 68.3 933.3 63.7 946.7 61.3L960 59L960 0L946.7 0C933.3 0 906.7 0 880 0C853.3 0 826.7 0 800 0C773.3 0 746.7 0 720 0C693.3 0 666.7 0 640 0C613.3 0 586.7 0 560 0C533.3 0 506.7 0 480 0C453.3 0 426.7 0 400 0C373.3 0 346.7 0 320 0C293.3 0 266.7 0 240 0C213.3 0 186.7 0 160 0C133.3 0 106.7 0 80 0C53.3 0 26.7 0 13.3 0L0 0Z" fill="#5bb4ff"></path><path d="M0 37L13.3 36.7C26.7 36.3 53.3 35.7 80 34.2C106.7 32.7 133.3 30.3 160 30.5C186.7 30.7 213.3 33.3 240 33C266.7 32.7 293.3 29.3 320 30C346.7 30.7 373.3 35.3 400 35.2C426.7 35 453.3 30 480 27.3C506.7 24.7 533.3 24.3 560 27C586.7 29.7 613.3 35.3 640 36C666.7 36.7 693.3 32.3 720 32.8C746.7 33.3 773.3 38.7 800 36.8C826.7 35 853.3 26 880 24.3C906.7 22.7 933.3 28.3 946.7 31.2L960 34L960 0L946.7 0C933.3 0 906.7 0 880 0C853.3 0 826.7 0 800 0C773.3 0 746.7 0 720 0C693.3 0 666.7 0 640 0C613.3 0 586.7 0 560 0C533.3 0 506.7 0 480 0C453.3 0 426.7 0 400 0C373.3 0 346.7 0 320 0C293.3 0 266.7 0 240 0C213.3 0 186.7 0 160 0C133.3 0 106.7 0 80 0C53.3 0 26.7 0 13.3 0L0 0Z" fill="#46acff"></path></svg>